# xmcd CD database file
#
# Track frame offsets:
#	150
#	23040
#	54795
#	75135
#	96687
#	114947
#	135085
#	149943
#	172520
#	193432
#	205002
#	224447
#	242502
#	264030
#	282469
#	297436
#	318107
#	342245
#
# Disc length: 4733 seconds
#
# Revision: 7
# Processed by: cddbd v1.5.2PL0 Copyright (c) Steve Scherf et al.
# Submitted via: CDex 1.70beta2
#
DISCID=fd127b12
DTITLE=Bruce Springsteen - Greatest Hits
DYEAR=2009
DGENRE=Rock
TTITLE0=Blinded By The Light
TTITLE1=Rosalita
TTITLE2=Born To Run
TTITLE3=Thunder Road
TTITLE4=Badlands
TTITLE5=Darkness On The Edge Of Town
TTITLE6=Hungry Heart
TTITLE7=The River
TTITLE8=Born In The U.S.A.
TTITLE9=I'm On Fire
TTITLE10=Glory Days
TTITLE11=Dancing In The Dark
TTITLE12=The Rising
TTITLE13=Lonesome Day
TTITLE14=Radio Nowhere
TTITLE15=Long Walk Home
TTITLE16=Because The Night
TTITLE17=Fire
EXTD=YEAR: 2009
EXTT0=
EXTT1=
EXTT2=
EXTT3=
EXTT4=
EXTT5=
EXTT6=
EXTT7=
EXTT8=
EXTT9=
EXTT10=
EXTT11=
EXTT12=
EXTT13=
EXTT14=
EXTT15=
EXTT16=
EXTT17=
PLAYORDER=
